<?xml version="1.0" encoding="utf-8"?>
<svg viewBox="0 0 500 500" xmlns="http://www.w3.org/2000/svg">
  <g transform="matrix(0.20664198696613312, 0, 0, -0.20330502092838287, -51.5999870300293, 534.0338745117188)" fill="#252425" stroke="none" style="">
    <path d="M1235 2600 c-422 -89 -769 -385 -909 -778 -32 -91 -66 -254 -66 -321 l0 -51 53 0 c81 -1 200 -25 264 -55 62 -28 183 -103 183 -114 0 -3 -22 -18 -49 -33 l-49 -28 -37 30 c-20 16 -63 42 -94 57 -48 23 -72 28 -167 31 l-111 4 4 -33 c29 -251 90 -422 218 -614 167 -250 396 -410 704 -493 86 -23 115 -25 281 -26 170 0 193 2 286 26 183 49 297 104 429 206 164 126 281 269 365 443 58 124 96 250 112 374 16 129 17 129 -90 122 -119 -9 -203 -41 -312 -118 -12 -9 -27 -4 -68 21 -28 18 -52 34 -52 35 0 6 140 86 190 109 72 33 184 56 272 56 l71 0 -7 84 c-32 390 -288 769 -645 955 -103 53 -231 97 -340 116 -118 21 -323 18 -436 -5z m457 -139 c156 -41 307 -114 390 -189 l38 -34 0 -265 0 -264 -42 -18 -43 -18 -3 253 -2 253 -43 36 c-61 53 -148 99 -257 137 -92 32 -100 33 -250 32 -127 0 -169 -4 -235 -22 -92 -26 -263 -107 -317 -152 l-38 -31 0 -260 c0 -160 -4 -259 -10 -259 -5 0 -25 8 -45 17 l-35 17 2 275 3 275 49 37 c124 94 283 163 445 194 103 20 291 13 393 -14z m-57 -340 c118 -47 187 -112 231 -219 52 -126 10 -315 -88 -397 -35 -30 -110 -69 -149 -78 l-26 -7 67 -132 c37 -73 101 -205 141 -293 82 -178 120 -226 191 -246 54 -14 121 1 159 37 l25 24 28 -29 28 -29 -18 -31 c-26 -44 -79 -78 -152 -96 -83 -21 -143 -13 -233 32 -109 54 -125 79 -299 458 -119 261 -130 278 -183 304 -83 40 -77 64 -77 -323 l0 -343 71 -7 c65 -7 75 -11 115 -48 24 -22 44 -44 44 -49 0 -5 -108 -9 -241 -9 l-240 0 -15 36 c-8 20 -14 37 -12 38 2 1 21 7 43 12 l40 9 3 642 2 642 -35 27 c-29 22 -65 78 -65 101 0 3 132 3 293 1 279 -4 295 -5 352 -27z m764 -226 c57 -114 91 -224 91 -293 0 -28 -3 -30 -40 -34 -32 -3 -40 0 -40 13 0 38 -43 177 -80 261 -35 78 -40 100 -40 162 l0 71 25 -30 c14 -16 52 -84 84 -150z m-1786 73 c-4 -74 -12 -105 -34 -150 -30 -60 -69 -187 -69 -225 0 -21 -5 -23 -45 -23 -40 0 -45 2 -45 23 0 46 41 191 75 265 32 69 112 202 121 202 2 0 1 -42 -3 -92z m1620 -447 c-35 -69 -86 -100 -173 -108 -71 -7 -75 1 -30 68 37 56 84 87 163 109 77 21 82 13 40 -69z m-1524 65 c72 -20 126 -58 162 -113 16 -26 29 -51 29 -55 0 -14 -89 -9 -128 7 -61 26 -103 77 -126 153 -9 26 -7 26 63 8z m-233 -402 c40 -19 85 -87 112 -169 21 -67 40 -245 25 -245 -12 0 -95 139 -126 210 -22 50 -45 123 -61 193 -7 32 2 34 50 11z m1990 -118 c-24 -69 -101 -236 -110 -236 -8 0 -56 81 -56 94 0 29 49 159 75 198 16 24 43 47 68 58 l42 19 3 -28 c2 -16 -8 -63 -22 -105z m-1560 -487 c25 -28 224 -123 299 -143 106 -28 245 -38 352 -26 109 12 235 42 306 72 41 18 57 19 110 12 l62 -9 -62 -38 c-74 -45 -175 -88 -269 -113 -55 -15 -104 -19 -244 -19 -190 0 -226 6 -379 65 -76 30 -242 129 -267 161 -8 9 -13 101 -15 285 l-4 271 40 31 40 31 6 -279 c5 -257 7 -281 25 -301z m1180 555 l34 -26 0 -98 0 -97 -37 -6 c-20 -4 -40 -4 -45 -1 -12 8 -10 254 3 254 6 0 26 -12 45 -26z"/>
    <path d="M1282 1778 l3 -233 95 -3 c52 -2 114 0 136 3 103 15 189 119 188 225 -1 94 -54 172 -146 215 -46 22 -67 25 -166 25 l-112 0 2 -232z"/>
  </g>
</svg>