{  "asset": {    "version": "2.0",    "generator": "THREE.GLTFExporter"  },  "scenes": [    {      "name": "AuxScene",      "nodes": [        1      ]    }  ],  "scene": 0,  "nodes": [    {      "matrix": [        0.0015,        0,        0,        0,        0,        0.0015,        0,        0,        0,        0,        0.0015,        0,        0,        0,        0,        1      ],      "mesh": 0    },    {      "children": [        0      ]    }  ],  "bufferViews": [    {      "buffer": 0,      "byteOffset": 0,      "byteLength": 207936,      "target": 34962,      "byteStride": 12    },    {      "buffer": 0,      "byteOffset": 207936,      "byteLength": 207936,      "target": 34962,      "byteStride": 12    },    {      "buffer": 0,      "byteOffset": 415872,      "byteLength": 207936,      "target": 34962,      "byteStride": 12    }  ],  "buffers": [    {      "byteLength": 623808,      "uri": "data:application/octet-stream;base64,"    }  ],  "accessors": [    {      "bufferView": 0,      "componentType": 5126,      "count": 17328,      "max": [        14.5,        12,        12      ],      "min": [        -14.5,        -12,        -10      ],      "type": "VEC3"    },    {      "bufferView": 1,      "componentType": 5126,      "count": 17328,      "max": [        1,        1,        1      ],      "min": [        -1,        -1,        -1      ],      "type": "VEC3"    },    {      "bufferView": 2,      "componentType": 5126,      "count": 17328,      "max": [        0.6038273572921753,        0.7083757519721985,        0.9734452962875366      ],      "min": [        0,        0,        0      ],      "type": "VEC3"    }  ],  "materials": [    {      "pbrMetallicRoughness": {        "metallicFactor": 0,        "roughnessFactor": 1      }    }  ],  "meshes": [    {      "primitives": [        {          "mode": 4,          "attributes": {            "POSITION": 0,            "NORMAL": 1,            "COLOR_0": 2          },          "material": 0        }      ]    }  ]}